<?xml version="1.0" encoding="UTF-8" standalone="no"?> <!-- Created with Vectornator for iOS (http://vectornator.io/) --><!DOCTYPE svg PUBLIC "-//W3C//DTD SVG 1.1//EN" "http://www.w3.org/Graphics/SVG/1.1/DTD/svg11.dtd">
<svg height="100%" style="fill-rule:evenodd;clip-rule:evenodd;stroke-linecap:round;stroke-linejoin:round;" xmlns:xlink="http://www.w3.org/1999/xlink" xmlns="http://www.w3.org/2000/svg" xml:space="preserve" width="100%" xmlns:vectornator="http://vectornator.io" version="1.1" viewBox="0 0 1024 512">
<metadata>
<vectornator:setting key="DynamicGuides" value="1"/>
<vectornator:setting key="Units" value="Points"/>
<vectornator:setting key="GuidesVisible" value="1"/>
<vectornator:setting key="RulersVisible" value="1"/>
<vectornator:setting key="SnapToGuides" value="1"/>
<vectornator:setting key="GridSpacing" value="36"/>
</metadata>
<defs/>
<g id="Layer 1" vectornator:layerName="Layer 1">
<path d="M453.389+191.84C414.698+209.513+498.226+353.739+419.878+335.792C395.484+268.585+403.186+187.71+395.952+114.865C395.937+114.361+395.925+113.854+395.911+113.349C383.718+113.994+371.525+114.641+359.332+115.286C375.477+200.661+345.812+312.701+406.216+376.13C509.388+427.54+513.631+209.955+453.389+191.84" fill-rule="evenodd" fill="#c15656" opacity="1"/>
<path d="M449.442+201.034C503.589+182.905+535.084+72.3248+596.225+34.2674C606.6+25.4046+581.496-8.75228+572.376+2.11123C518.573+55.4873+468.185+116.146+433.836+188.371C434.799+195.505+444.842+196.612+449.442+201.034" fill-rule="evenodd" fill="#c15656" opacity="1"/>
<path d="M320.648+245.435C314.73+245.667+308.813+245.903+302.899+246.135C303.046+381.732+109.125+351.971+98.7525+238.94C86.5499+238.951+74.3496+238.962+62.1469+238.976C62.1541+239.467+62.1638+239.957+62.171+240.447C72.801+403.565+336.6+438.916+338.789+252.928C337.689+246.191+326.037+248.293+320.648+245.435" fill-rule="evenodd" fill="#c15656" opacity="1"/>
<path d="M136.377+163.943C166.454+204.284+148.83+154.158+170.015+170.419C142.711+155.027+170.401+145.461+119.545+155.705C118.409+205.727+189.229+234.059+194.252+172.226C204.172+126.85+115.579+117.864+136.377+163.943" fill-rule="evenodd" fill="#c15656" opacity="1"/>
<path d="M212.367+175.695C243.737+182.397+243.978+166.017+238.376+158.925C239.142+144.376+200.661+144.9+201.976+159.622C196.227+210.667+266.397+222.43+277.602+176.174C287.84+105.369+165.512+129.725+212.367+175.695" fill-rule="evenodd" fill="#c15656" opacity="1"/>
<path d="M583.356+194.057C640.492+228.959+735.36+201.404+807.748+209.79C806.606+210.132+799.748+203.6+800.232+200.176C796.468+252.692+796.14+318.913+793.058+363.673C743.19+382.228+672.141+366.36+614.545+366.001C604.25+320.443+572.571+264.492+576.988+210.353C567.059+214.08+591.727+211.295+596.379+207.591C596.379+195.021+596.379+182.451+596.379+169.881C596.411+167.093+594.566+167.207+592.697+167.446C490.902+183.252+566.303+336.938+594.19+401.534C659.56+415.012+731.924+422.059+798.081+406.603C856.402+363.535+825.051+258.574+835.349+187.976C766.177+143.295+665.287+172.192+584.499+171.312C583.459+178.245+583.365+186.575+583.356+194.057" fill-rule="evenodd" fill="#c15656" opacity="1"/>
<path d="M572.085+192.782C576.901+197.03+581.629+201.448+586.515+205.559C657.988+68.7073+776.12+152.606+873.144+133.869C799.374+59.385+633.816+48.3842+561.607+174.215C560.205+180.276+569.176+186.76+572.085+192.782" fill-rule="evenodd" fill="#c15656" opacity="1"/>
<path d="M831.66+373.076C837.213+375.139+842.93+379.992+848.378+380.191C870.97+292.899+964.639+200.042+894.696+115.143C889.973+101.023+855.191+120.691+861.859+133.746C943.829+198.876+792.47+299.64+831.66+373.076" fill-rule="evenodd" fill="#c15656" opacity="1"/>
<g opacity="1">
<path d="M677.726+270.53C683.701+274.411+686.687+280.62+686.687+289.158C686.687+296.043+684.498+301.882+680.117+306.673C675.737+311.465+670.414+313.861+664.15+313.861C659.481+313.861+655.274+312.765+651.534+310.571C647.211+308.007+644.294+304.362+642.787+299.638C642.555+298.929+642.44+298.169+642.44+297.36C642.44+295.468+643.093+293.899+644.398+292.652C645.614+291.503+647.008+290.929+648.574+290.929C650.402+290.929+651.866+291.775+652.969+293.462C654.826+296.365+655.897+297.951+656.189+298.22C657.985+299.907+660.639+300.75+664.15+300.75C666.905+300.75+669.321+299.789+671.394+297.864C673.468+295.942+674.506+293.63+674.506+290.929C674.506+282.525+669.646+277.768+659.929+276.655C655.666+276.182+653.535+274.105+653.535+270.429C653.535+267.627+655.187+265.584+658.493+264.301C661.627+263.491+664.745+262.665+667.847+261.821C669.819+261.112+671.3+260.185+672.286+259.039C673.273+257.89+673.779+256.523+673.81+254.937C673.926+249.91+670.547+247.394+663.671+247.394C661.41+247.394+658.929+248.399+656.232+250.406C653.535+252.415+651.692+253.418+650.705+253.418C649.053+253.418+647.647+252.726+646.486+251.342C645.325+249.96+644.745+248.391+644.745+246.634C644.745+243.768+647.182+240.915+652.054+238.08C656.405+235.549+659.943+234.283+662.672+234.283C669.256+234.283+674.549+235.936+678.552+239.245C682.93+242.888+685.121+248.086+685.121+254.836C685.121+258.548+684.505+261.712+683.272+264.326C682.039+266.943+680.189+269.011+677.726+270.53Z" fill-rule="evenodd" fill="#c15656" opacity="1"/>
<path d="M704.482+312.039C702.772+312.006+701.336+311.322+700.176+309.988C699.015+308.657+698.434+307.046+698.434+305.155C698.434+301.781+698.572+296.718+698.849+289.968C699.123+283.218+699.26+278.157+699.26+274.781C699.26+271.034+699.195+265.416+699.065+257.924C698.935+250.431+698.87+244.813+698.87+241.067C698.87+239.212+699.639+237.362+701.175+235.524C702.714+233.683+704.351+232.764+706.093+232.764C707.049+232.764+709.457+233.809+713.315+235.902C717.811+238.399+720.48+239.8+721.32+240.105C729.819+243.311+737.07+248.271+743.074+254.987C750.239+262.987+753.822+271.827+753.822+281.514C753.822+287.353+752.589+292.904+750.123+298.169C747.657+303.535+744.278+307.839+739.987+311.078C735.17+314.724+728.398+316.545+719.668+316.545C717.549+316.545+715.114+316.192+712.357+315.483C709.021+314.603+706.396+313.457+704.482+312.039ZM728.935+260C726.12+257.94+720.087+254.701+710.835+250.28L710.835+300.397C711.966+301.24+713.265+301.874+714.729+302.294C716.193+302.717+717.826+302.927+719.622+302.927C725.889+302.927+730.385+301.916+733.111+299.89C735.693+297.968+737.745+295.35+739.267+292.044C740.791+288.738+741.552+285.294+741.552+281.716C741.552+273.346+737.347+266.108+728.935+260Z" fill-rule="evenodd" fill="#c15656" opacity="1"/>
</g>
</g>
</svg>
